<svg xmlns="http://www.w3.org/2000/svg" width="288.267" height="49.312" viewBox="0 0 288.267 49.312">
  <g id="logo-color" transform="translate(-196.479 -2098.981)">
    <rect id="Rect치ngulo_2" data-name="Rect치ngulo 2" width="4.353" height="20.964" transform="translate(268.213 2113.314)" fill="#191614"/>
    <path id="Trazado_1136" data-name="Trazado 1136" d="M3443.87,1169.016h4.593l8.322,14.618v-14.618h4.082v20.964h-4.38l-8.534-14.875v14.875h-4.082Z" transform="translate(-3161.452 944.298)" fill="#191614"/>
    <path id="Trazado_1137" data-name="Trazado 1137" d="M4275.746,1169.016h4.551l-7.147,20.964h-4.139l-7.089-20.964h4.679l4.552,15.915Z" transform="translate(-3954.129 944.298)" fill="#191614"/>
    <path id="Trazado_1138" data-name="Trazado 1138" d="M5016.529,1169h4.956l7.418,20.966h-4.75l-1.383-4.31h-7.721l-1.422,4.31h-4.581Zm-.29,13.043h5.369l-2.648-8.25Z" transform="translate(-4678.078 944.317)" fill="#191614"/>
    <path id="Trazado_1139" data-name="Trazado 1139" d="M5894.174,1164.392a4.244,4.244,0,0,0,.8,2.148,4.647,4.647,0,0,0,3.731,1.293,8.042,8.042,0,0,0,2.57-.341,2.438,2.438,0,0,0,1.874-2.432,1.8,1.8,0,0,0-.917-1.608,9.974,9.974,0,0,0-2.911-.981l-2.27-.5a14.128,14.128,0,0,1-4.6-1.608,5.109,5.109,0,0,1-2.118-4.536,6.029,6.029,0,0,1,2.071-4.68q2.075-1.862,6.093-1.864a9.342,9.342,0,0,1,5.722,1.757,6.243,6.243,0,0,1,2.483,5.1h-4.209a3,3,0,0,0-1.692-2.687,5.786,5.786,0,0,0-2.609-.527,4.974,4.974,0,0,0-2.771.683,2.162,2.162,0,0,0-1.035,1.906,1.8,1.8,0,0,0,1.021,1.679,12.7,12.7,0,0,0,2.786.868l3.678.868a9.352,9.352,0,0,1,3.626,1.522,5.132,5.132,0,0,1,1.874,4.28,6.014,6.014,0,0,1-2.221,4.773,9.373,9.373,0,0,1-6.274,1.9,10.26,10.26,0,0,1-6.512-1.869,6.188,6.188,0,0,1-2.372-5.142Z" transform="translate(-5531.7 963.415)" fill="#3a7fac"/>
    <rect id="Rect치ngulo_3" data-name="Rect치ngulo 3" width="4.353" height="20.964" transform="translate(384.216 2113.314)" fill="#3a7fac"/>
    <path id="Trazado_1140" data-name="Trazado 1140" d="M7168.427,1158.686a4.108,4.108,0,0,0-2.432-3,5.971,5.971,0,0,0-2.4-.469,5.22,5.22,0,0,0-4.161,1.91q-1.63,1.909-1.629,5.741,0,3.863,1.763,5.466a5.8,5.8,0,0,0,4.012,1.6,5.2,5.2,0,0,0,3.613-1.265,5.461,5.461,0,0,0,1.735-3.315h-4.851v-3.5h8.733v11.25h-2.9l-.44-2.618a10.073,10.073,0,0,1-2.276,2.1,8.047,8.047,0,0,1-4.268,1.062,8.867,8.867,0,0,1-6.827-2.886,11,11,0,0,1-2.772-7.931,11.632,11.632,0,0,1,2.8-8.159,9.549,9.549,0,0,1,7.41-3.07,9.681,9.681,0,0,1,6.421,2.026,7.533,7.533,0,0,1,2.781,5.056Z" transform="translate(-6755.842 961.171)" fill="#3a7fac"/>
    <path id="Trazado_1141" data-name="Trazado 1141" d="M8103.2,1189.985V1169.02h4.352v7.993h8.15v-7.993h4.352v20.964h-4.352v-9.358h-8.15v9.358Z" transform="translate(-7676.258 944.294)" fill="#3a7fac"/>
    <path id="Trazado_1142" data-name="Trazado 1142" d="M8930.669,1169.016v3.712H8924.4v17.252h-4.409v-17.252h-6.3v-3.712Z" transform="translate(-8461.602 944.298)" fill="#3a7fac"/>
    <path id="Trazado_1143" data-name="Trazado 1143" d="M1232.67,1258.535a7.787,7.787,0,1,0-7.787,7.787,7.787,7.787,0,0,0,7.787-7.787" transform="translate(-1003.751 865.102)" fill="#6cb6e6"/>
    <path id="Trazado_1144" data-name="Trazado 1144" d="M9737.144,1169.367h-1.164v3.306h-.452v-3.306h-1.163v-.347h2.779Zm4.424,3.306h-.45V1169.4h-.018l-1.258,3.271h-.3l-1.258-3.271h-.018v3.271h-.45v-3.653h.832l1.042,2.7h.017l1.024-2.7h.832Z" transform="translate(-9256.821 944.294)" fill="#161615"/>
    <path id="Trazado_1145" data-name="Trazado 1145" d="M677.346,741.358a2.87,2.87,0,0,1-2.722-1.966,24.647,24.647,0,0,1,31.166-31.164,2.869,2.869,0,1,1-1.808,5.445,18.91,18.91,0,0,0-23.912,23.911,2.871,2.871,0,0,1-2.723,3.774" transform="translate(-476.872 1392.027)" fill="#3a9fd7"/>
    <path id="Trazado_1146" data-name="Trazado 1146" d="M1163.256,1224.5a24.82,24.82,0,0,1-7.85-1.28,2.869,2.869,0,1,1,1.812-5.444,18.91,18.91,0,0,0,23.949-23.837,2.869,2.869,0,1,1,5.452-1.787,24.668,24.668,0,0,1-23.363,32.347" transform="translate(-942.072 923.798)" fill="#3a7fac"/>
  </g>
</svg>
