<svg xmlns="http://www.w3.org/2000/svg" xmlns:xlink="http://www.w3.org/1999/xlink" width="347.957" height="59.524" viewBox="0 0 347.957 59.524">
  <defs>
    <clipPath id="clip-path">
      <rect id="Rectángulo_931" data-name="Rectángulo 931" width="347.957" height="59.524" fill="#fff"/>
    </clipPath>
  </defs>
  <g id="logo-white-footer" transform="translate(0 0)">
    <rect id="Rectángulo_929" data-name="Rectángulo 929" width="5.254" height="25.305" transform="translate(86.589 17.301)" fill="#fff"/>
    <path id="Trazado_1248" data-name="Trazado 1248" d="M85.753,14.3H91.3l10.045,17.646V14.3h4.927V39.607h-5.288L90.68,21.652V39.607H85.753Z" transform="translate(17.981 2.999)" fill="#fff"/>
    <path id="Trazado_1249" data-name="Trazado 1249" d="M127.761,14.3h5.493l-8.626,25.305h-5L111.073,14.3h5.648l5.494,19.211Z" transform="translate(23.29 2.999)" fill="#fff"/>
    <path id="Trazado_1250" data-name="Trazado 1250" d="M143.233,14.3h5.982l8.954,25.308h-5.735l-1.669-5.2h-9.319l-1.715,5.2H134.2Zm-.35,15.744h6.481l-3.2-9.958Z" transform="translate(28.139 2.999)" fill="#fff"/>
    <g id="Grupo_15873" data-name="Grupo 15873" transform="translate(0 0)">
      <g id="Grupo_15872" data-name="Grupo 15872" clip-path="url(#clip-path)">
        <path id="Trazado_1251" data-name="Trazado 1251" d="M166.514,31.925a5.115,5.115,0,0,0,.964,2.594q1.314,1.562,4.5,1.56a9.7,9.7,0,0,0,3.1-.411,2.945,2.945,0,0,0,2.261-2.935,2.167,2.167,0,0,0-1.108-1.942,12.057,12.057,0,0,0-3.513-1.184l-2.74-.6a17.037,17.037,0,0,1-5.55-1.94,6.165,6.165,0,0,1-2.557-5.475,7.272,7.272,0,0,1,2.5-5.649q2.5-2.248,7.351-2.25a11.276,11.276,0,0,1,6.907,2.122,7.532,7.532,0,0,1,3,6.154h-5.081a3.625,3.625,0,0,0-2.042-3.244,6.987,6.987,0,0,0-3.15-.635,6.012,6.012,0,0,0-3.345.824,2.612,2.612,0,0,0-1.248,2.3A2.171,2.171,0,0,0,168,23.238a15.364,15.364,0,0,0,3.362,1.048l4.441,1.048a11.292,11.292,0,0,1,4.378,1.836,6.2,6.2,0,0,1,2.262,5.167,7.26,7.26,0,0,1-2.682,5.761q-2.68,2.292-7.575,2.291-5,0-7.861-2.256a7.474,7.474,0,0,1-2.863-6.207Z" transform="translate(33.856 2.871)" fill="#fff"/>
        <rect id="Rectángulo_930" data-name="Rectángulo 930" width="5.254" height="25.305" transform="translate(226.613 17.301)" fill="#fff"/>
        <path id="Trazado_1252" data-name="Trazado 1252" d="M218.8,22.312a4.956,4.956,0,0,0-2.935-3.622,7.205,7.205,0,0,0-2.9-.567,6.3,6.3,0,0,0-5.021,2.306q-1.969,2.3-1.967,6.929,0,4.663,2.129,6.6a6.993,6.993,0,0,0,4.842,1.937,6.277,6.277,0,0,0,4.361-1.527,6.6,6.6,0,0,0,2.094-4h-5.855V26.14h10.541V39.72h-3.5l-.532-3.16a12.128,12.128,0,0,1-2.746,2.531,9.711,9.711,0,0,1-5.152,1.282,10.7,10.7,0,0,1-8.24-3.484q-3.348-3.5-3.348-9.573,0-6.142,3.383-9.848a11.525,11.525,0,0,1,8.943-3.705,11.684,11.684,0,0,1,7.752,2.446,9.09,9.09,0,0,1,3.357,6.1Z" transform="translate(42.055 2.886)" fill="#fff"/>
        <path id="Trazado_1253" data-name="Trazado 1253" d="M229.969,39.608V14.3h5.254v9.647h9.838V14.3h5.252V39.608h-5.252v-11.3h-9.838v11.3Z" transform="translate(48.22 2.999)" fill="#fff"/>
        <path id="Trazado_1254" data-name="Trazado 1254" d="M275.555,14.3v4.481h-7.571V39.607h-5.321V18.782h-7.606V14.3Z" transform="translate(53.48 2.999)" fill="#fff"/>
        <path id="Trazado_1255" data-name="Trazado 1255" d="M35.628,26.231a9.4,9.4,0,1,0-9.4,9.4,9.4,9.4,0,0,0,9.4-9.4" transform="translate(3.529 3.529)" fill="#fff"/>
        <path id="Trazado_1256" data-name="Trazado 1256" d="M283.81,14.721h-1.4v3.991h-.544V14.721h-1.4V14.3h3.352Zm5.341,3.991h-.544V14.763h-.021l-1.519,3.948h-.356l-1.518-3.948h-.022v3.948h-.544V14.3h1.005l1.257,3.258h.022l1.235-3.258h1.005Z" transform="translate(58.807 2.999)" fill="#fff"/>
        <path id="Trazado_1257" data-name="Trazado 1257" d="M4.823,41.527a3.462,3.462,0,0,1-3.285-2.372A29.751,29.751,0,0,1,39.156,1.537,3.463,3.463,0,1,1,36.974,8.11,22.826,22.826,0,0,0,8.11,36.971a3.466,3.466,0,0,1-3.287,4.556" transform="translate(0 0)" fill="#fff"/>
        <path id="Trazado_1258" data-name="Trazado 1258" d="M26.705,56.387a29.956,29.956,0,0,1-9.475-1.545,3.463,3.463,0,1,1,2.187-6.571A22.826,22.826,0,0,0,48.325,19.5a3.463,3.463,0,0,1,6.582-2.157,29.776,29.776,0,0,1-28.2,39.045" transform="translate(3.116 3.136)" fill="#fff"/>
      </g>
    </g>
  </g>
</svg>
