<svg xmlns="http://www.w3.org/2000/svg" width="29.463" height="29.464" viewBox="0 0 29.463 29.464">
  <g id="ic_linkedinWhiteFooterH" transform="translate(-125.281 -582.416)">
    <path id="Trazado_1412" data-name="Trazado 1412" d="M28.963,15.148A14.231,14.231,0,1,0,14.731,29.38,14.232,14.232,0,0,0,28.963,15.148Z" transform="translate(125.281 582)" fill="#fff" stroke="#fff" stroke-width="1"/>
    <path id="Trazado_1413" data-name="Trazado 1413" d="M21.241,21.647H18.547V17.425c0-1.007-.021-2.3-1.4-2.3-1.4,0-1.62,1.1-1.62,2.228v4.3H12.829V12.965h2.588v1.184h.035a2.839,2.839,0,0,1,2.555-1.4c2.73,0,3.235,1.8,3.235,4.136v4.765ZM9.785,11.777a1.565,1.565,0,1,1,1.565-1.566,1.563,1.563,0,0,1-1.565,1.566m1.351,9.87h-2.7V12.965h2.7Z" transform="translate(125.281 581)"/>
  </g>
</svg>
