<svg xmlns="http://www.w3.org/2000/svg" width="29.463" height="29.464" viewBox="0 0 29.463 29.464">
  <g id="ic_twitterWhiteFooterH" transform="translate(-165.683 -582)">
    <path id="Trazado_1414" data-name="Trazado 1414" d="M69.365,14.732A14.231,14.231,0,1,0,55.133,28.964,14.232,14.232,0,0,0,69.365,14.732Z" transform="translate(125.281 582)" fill="#fff" stroke="#fff" stroke-width="1"/>
    <path id="Trazado_1415" data-name="Trazado 1415" d="M52.677,21.339a9.419,9.419,0,0,0,9.5-9.334c0-.057,0-.114,0-.17v-.453a7.377,7.377,0,0,0,1.63-1.72,7.49,7.49,0,0,1-1.9.543,3.521,3.521,0,0,0,1.448-1.811,8.248,8.248,0,0,1-2.082.815,3.236,3.236,0,0,0-2.444-1.086,3.4,3.4,0,0,0-3.349,3.35,1.741,1.741,0,0,0,.091.723,9.357,9.357,0,0,1-6.879-3.529,3.468,3.468,0,0,0-.453,1.72,3.594,3.594,0,0,0,1.448,2.806,3.056,3.056,0,0,1-1.539-.453A3.308,3.308,0,0,0,50.866,16a2.79,2.79,0,0,1-.905.09,1.532,1.532,0,0,1-.633-.09,3.429,3.429,0,0,0,3.167,2.353A6.827,6.827,0,0,1,48.333,19.8a2.519,2.519,0,0,1-.815-.09,8.548,8.548,0,0,0,5.159,1.629" transform="translate(125.281 582)" fill-rule="evenodd"/>
  </g>
</svg>
